HIERARCHY
ROOT joint_Root
{
	OFFSET 0.0 0.0 0.0
	CHANNELS 6 Xposition Yposition Zposition Zrotation Xrotation Yrotation 
	JOINT Hips
	{
		OFFSET -17.1583 93.1646 452.98
		CHANNELS 6 Xposition Yposition Zposition Zrotation Xrotation Yrotation 
		JOINT Spine
		{
			OFFSET 15.7357 0.0 0.0
			CHANNELS 6 Xposition Yposition Zposition Zrotation Xrotation Yrotation 
			JOINT Chest
			{
				OFFSET 8.98455 -0.406207 0.0
				CHANNELS 6 Xposition Yposition Zposition Zrotation Xrotation Yrotation 
				JOINT Neck
				{
					OFFSET 16.3773 0.0 0.0
					CHANNELS 6 Xposition Yposition Zposition Zrotation Xrotation Yrotation 
					JOINT Head
					{
						OFFSET 6.45672 0.0 0.0
						CHANNELS 6 Xposition Yposition Zposition Zrotation Xrotation Yrotation 
						End Site
						{
							OFFSET 0.0 0.0 0.0
						}
					}
				}
				JOINT Shoulder_L
				{
					OFFSET 12.9942 -0.242716 4.98039
					CHANNELS 6 Xposition Yposition Zposition Zrotation Xrotation Yrotation 
					JOINT UpperArm_L
					{
						OFFSET 5.34809 0.0 0.0
						CHANNELS 6 Xposition Yposition Zposition Zrotation Xrotation Yrotation 
						JOINT LowerArm_L
						{
							OFFSET 24.3286 1.87007e-05 0.0
							CHANNELS 6 Xposition Yposition Zposition Zrotation Xrotation Yrotation 
							JOINT Hand_L
							{
								OFFSET 22.2916 0.0 0.0
								CHANNELS 6 Xposition Yposition Zposition Zrotation Xrotation Yrotation 
								End Site
								{
									OFFSET 0.0 0.0 0.0
								}
							}
						}
					}
				}
				JOINT Shoulder_R
				{
					OFFSET 12.9945 -0.242716 -4.98039
					CHANNELS 6 Xposition Yposition Zposition Zrotation Xrotation Yrotation 
					JOINT UpperArm_R
					{
						OFFSET -5.34813 0.0 0.0
						CHANNELS 6 Xposition Yposition Zposition Zrotation Xrotation Yrotation 
						JOINT LowerArm_R
						{
							OFFSET -24.3289 0.000322201 0.0
							CHANNELS 6 Xposition Yposition Zposition Zrotation Xrotation Yrotation 
							JOINT Hand_R
							{
								OFFSET -22.2915 -0.000108084 0.0
								CHANNELS 6 Xposition Yposition Zposition Zrotation Xrotation Yrotation 
								End Site
								{
									OFFSET 0.0 0.0 0.0
								}
							}
						}
					}
				}
			}
		}
		JOINT UpperLeg_L
		{
			OFFSET -2.19248 -6.46944 0.0
			CHANNELS 6 Xposition Yposition Zposition Zrotation Xrotation Yrotation 
			JOINT LowerLeg_L
			{
				OFFSET 39.0811 0.0 -1.23785e-05
				CHANNELS 6 Xposition Yposition Zposition Zrotation Xrotation Yrotation 
				JOINT Foot_L
				{
					OFFSET 40.9854 0.0 -1.26872e-05
					CHANNELS 6 Xposition Yposition Zposition Zrotation Xrotation Yrotation 
					JOINT Toes_L
					{
						OFFSET 11.7543 0.0 0.0
						CHANNELS 6 Xposition Yposition Zposition Zrotation Xrotation Yrotation 
						End Site
						{
							OFFSET 0.0 0.0 0.0
						}
					}
				}
			}
		}
		JOINT UpperLeg_R
		{
			OFFSET -2.19251 6.46944 0.0
			CHANNELS 6 Xposition Yposition Zposition Zrotation Xrotation Yrotation 
			JOINT LowerLeg_R
			{
				OFFSET -39.0811 -0.00228153 -0.0401928
				CHANNELS 6 Xposition Yposition Zposition Zrotation Xrotation Yrotation 
				JOINT Foot_R
				{
					OFFSET -40.9854 0.0 0.0
					CHANNELS 6 Xposition Yposition Zposition Zrotation Xrotation Yrotation 
					JOINT Toes_R
					{
						OFFSET -11.7543 0.0 0.0
						CHANNELS 6 Xposition Yposition Zposition Zrotation Xrotation Yrotation 
						End Site
						{
							OFFSET 0.0 0.0 0.0
						}
					}
				}
			}
		}
	}
}
MOTION
Frames:	5
Frame Time:	0.0333333
0.000000 0.000000 0.000000 0.000000 0.000000 -0.000000 -0.577930 86.898000 462.782000 -88.104300 3.157190 162.693000 15.735700 0.000005 -0.000001 63.964500 82.158200 -62.351600 8.984550 -0.406207 -0.000000 6.461130 -6.882010 3.614070 16.377300 -0.000001 -0.000001 -7.304950 5.408260 -2.270740 6.456720 -0.000001 -0.000000 -9.138260 8.832330 -4.715620 12.994200 -0.242716 4.980390 -91.893200 6.526810 -73.785400 5.348090 -0.000007 -0.000001 -71.318900 -18.124600 0.480679 24.328600 0.000019 0.000005 51.799500 9.693480 -82.450800 22.291600 -0.000001 0.000005 45.348300 4.117200 22.537200 12.994500 -0.242716 -4.980390 89.720600 0.962485 -73.811800 -5.348130 -0.000001 -0.000004 -66.234400 -11.793000 11.815300 -24.328900 0.000322 -0.000009 1.368020 4.791500 -15.966700 -22.291500 -0.000108 -0.000004 52.605800 5.404790 -3.093440 -2.192480 -6.469440 -0.000000 -179.154000 -1.928800 -10.991400 39.081100 -0.000007 -0.000012 0.026238 -0.040837 32.719900 40.985400 -0.000006 -0.000013 -0.187414 12.327100 -80.598200 11.754300 -0.000000 0.000003 -0.006412 -0.074538 -19.610700 -2.192510 6.469440 -0.000001 -173.914000 -3.051690 130.902000 -39.081100 -0.002282 -0.040193 -0.161591 0.034446 78.175300 -40.985400 0.000008 0.000006 -0.684722 -17.784800 -69.458900 -11.754300 -0.000006 -0.000006 0.001370 0.140047 -10.893900
0.000000 0.000000 0.000000 0.000000 0.000000 -0.000000 0.020833 89.673100 456.058000 -85.349600 3.415430 159.820000 15.735700 0.000005 -0.000001 56.984400 83.307800 -54.293600 8.984550 -0.406207 -0.000000 3.662010 -7.379930 5.617890 16.377300 -0.000001 -0.000001 -6.361330 6.154000 -2.655510 6.456720 -0.000001 -0.000000 -7.817360 10.147500 -5.499020 12.994200 -0.242716 4.980390 -91.748600 5.943030 -73.571800 5.348090 -0.000007 -0.000001 -70.755100 -19.543800 0.972608 24.328600 0.000019 0.000005 53.186100 5.904250 -85.596900 22.291600 -0.000001 0.000005 44.504500 4.146500 22.106900 12.994500 -0.242716 -4.980390 90.119700 -0.412319 -73.808700 -5.348130 -0.000001 -0.000004 -62.663300 -15.252300 17.303400 -24.328900 0.000322 -0.000009 1.471300 4.973040 -16.515700 -22.291500 -0.000108 -0.000004 53.689800 5.393210 -2.722750 -2.192480 -6.469440 -0.000000 -177.152000 -2.031470 -5.885510 39.081100 -0.000007 -0.000012 0.009402 -0.023415 21.877000 40.985400 -0.000006 -0.000013 0.279911 8.359930 -65.133900 11.754300 -0.000000 0.000003 -0.063322 -0.342434 -30.731100 -2.192510 6.469440 -0.000001 -172.098000 -6.410710 128.533000 -39.081100 -0.002282 -0.040193 -0.100543 0.048152 65.094500 -40.985400 0.000008 0.000006 -3.183650 -15.774100 -72.943100 -11.754300 -0.000006 -0.000006 0.000559 0.157654 -10.179400
0.000000 0.000000 0.000000 0.000000 0.000000 -0.000000 0.469338 91.917800 449.195000 -84.097200 3.190180 157.699000 15.735700 0.000005 -0.000001 49.180200 84.048100 -45.877700 8.984550 -0.406207 -0.000000 1.496470 -7.958040 6.711890 16.377300 -0.000001 -0.000001 -6.192000 6.470630 -2.702880 6.456720 -0.000001 -0.000000 -6.912260 11.022000 -5.628880 12.994200 -0.242716 4.980390 -91.639000 5.594900 -73.643600 5.348090 -0.000007 -0.000001 -71.065000 -20.406900 1.109640 24.328600 0.000019 0.000005 52.248800 2.020240 -88.435800 22.291600 -0.000001 0.000005 44.135100 4.165440 21.826600 12.994500 -0.242716 -4.980390 90.402300 -1.374490 -73.683400 -5.348130 -0.000001 -0.000004 -59.451700 -18.206200 21.681300 -24.328900 0.000322 -0.000009 0.530091 1.691920 -17.445500 -22.291500 -0.000108 -0.000004 54.466200 5.367610 -1.915550 -2.192480 -6.469440 -0.000000 -176.677000 -3.276550 -2.682780 39.081100 -0.000007 -0.000012 -0.006742 0.026208 14.424600 40.985400 -0.000006 -0.000013 2.201820 6.860180 -47.455900 11.754300 -0.000000 0.000003 -0.124770 -0.502283 -37.678300 -2.192510 6.469440 -0.000001 -172.070000 -8.460340 129.188000 -39.081100 -0.002282 -0.040193 -0.038939 0.036731 48.956600 -40.985400 0.000008 0.000006 -4.568970 -12.733800 -75.200200 -11.754300 -0.000006 -0.000006 0.000216 0.163944 -9.924010
0.000000 0.000000 0.000000 0.000000 0.000000 -0.000000 0.524164 93.073600 441.848000 -84.902300 3.629420 158.187000 15.735700 0.000005 -0.000001 47.084600 84.133300 -44.100800 8.984550 -0.406207 -0.000000 1.060540 -8.160810 6.046510 16.377300 -0.000001 -0.000001 -6.274190 6.423040 -2.527960 6.456720 -0.000001 -0.000000 -7.032010 11.294300 -5.012210 12.994200 -0.242716 4.980390 -91.679800 5.821880 -73.875400 5.348090 -0.000007 -0.000001 -71.227400 -20.056500 0.927151 24.328600 0.000019 0.000005 52.690200 -0.912637 -90.695500 22.291600 -0.000001 0.000005 47.237400 4.180730 21.602500 12.994500 -0.242716 -4.980390 90.423800 -1.430690 -73.496700 -5.348130 -0.000001 -0.000004 -56.999700 -20.523700 24.469800 -24.328900 0.000322 -0.000009 -0.960910 -2.881390 -18.430900 -22.291500 -0.000108 -0.000004 56.498200 5.347730 -1.315810 -2.192480 -6.469440 -0.000000 -178.246000 -4.687390 0.453666 39.081100 -0.000007 -0.000012 -0.011009 0.049485 12.541400 40.985400 -0.000006 -0.000013 2.350100 6.643130 -33.946300 11.754300 -0.000000 0.000003 -0.046837 -0.286307 -28.359400 -2.192510 6.469440 -0.000001 -174.794000 -10.367300 133.107000 -39.081100 -0.002282 -0.040193 -0.000009 0.004846 34.271200 -40.985400 0.000008 0.000006 -6.147760 -10.105500 -77.631500 -11.754300 -0.000006 -0.000006 -0.000020 0.168000 -9.759330
0.000000 0.000000 0.000000 0.000000 0.000000 -0.000000 0.483532 92.916500 434.244000 -86.029900 4.297120 159.864000 15.735700 0.000005 -0.000001 48.471700 84.074300 -46.043500 8.984550 -0.406207 -0.000000 1.295180 -7.990970 4.948950 16.377300 -0.000001 -0.000001 -6.244340 6.290530 -2.447790 6.456720 -0.000001 -0.000000 -6.982550 11.089000 -4.432570 12.994200 -0.242716 4.980390 -91.776700 6.198930 -73.972800 5.348090 -0.000007 -0.000001 -71.173900 -18.265800 1.177000 24.328600 0.000019 0.000005 52.565200 -1.754800 -91.342900 22.291600 -0.000001 0.000005 52.587000 4.205290 21.231400 12.994500 -0.242716 -4.980390 90.336300 -1.147170 -73.657700 -5.348130 -0.000001 -0.000004 -55.549500 -22.721600 25.799400 -24.328900 0.000322 -0.000009 -1.826560 -5.434380 -18.601800 -22.291500 -0.000108 -0.000004 58.606200 5.343670 -1.188310 -2.192480 -6.469440 -0.000000 179.929000 -3.686970 1.874160 39.081100 -0.000007 -0.000012 -0.013893 0.045752 16.891600 40.985400 -0.000006 -0.000013 -0.945281 6.553930 -23.361900 11.754300 -0.000000 0.000003 0.000991 0.018786 -15.814800 -2.192510 6.469440 -0.000001 -177.533000 -12.225200 136.744000 -39.081100 -0.002282 -0.040193 0.007996 -0.009394 26.518700 -40.985400 0.000008 0.000006 -6.935030 -9.868810 -80.039500 -11.754300 -0.000006 -0.000006 0.000016 0.167391 -9.784040
